<svg width="45" height="44" viewBox="0 0 45 44" fill="none" xmlns="http://www.w3.org/2000/svg">
    <g clip-path="url(#clip0_153_609)">
        <path
            d="M23.875 37.125V5.50003C23.8749 5.25118 23.8072 5.00704 23.6792 4.79363C23.5512 4.58023 23.3677 4.40556 23.1482 4.28824C22.9288 4.17093 22.6816 4.11537 22.433 4.12749C22.1845 4.13961 21.9439 4.21895 21.7369 4.35706L7.98688 13.5232C7.79828 13.649 7.64372 13.8195 7.53697 14.0195C7.43021 14.2195 7.37457 14.4428 7.375 14.6696V37.125"
            stroke="white" stroke-width="2" stroke-linecap="round" stroke-linejoin="round" />
        <path
            d="M23.875 15.125H36.25C36.6147 15.125 36.9644 15.2699 37.2223 15.5277C37.4801 15.7856 37.625 16.1353 37.625 16.5V37.125"
            stroke="white" stroke-width="2" stroke-linecap="round" stroke-linejoin="round" />
        <path d="M3.25 37.125H41.75" stroke="white" stroke-width="2" stroke-linecap="round" stroke-linejoin="round" />
        <path d="M18.375 19.25V22" stroke="white" stroke-width="2" stroke-linecap="round" stroke-linejoin="round" />
        <path d="M12.875 19.25V22" stroke="white" stroke-width="2" stroke-linecap="round" stroke-linejoin="round" />
        <path d="M12.875 28.875V31.625" stroke="white" stroke-width="2" stroke-linecap="round"
            stroke-linejoin="round" />
        <path d="M18.375 28.875V31.625" stroke="white" stroke-width="2" stroke-linecap="round"
            stroke-linejoin="round" />
    </g>
    <defs>
        <clipPath id="clip0_153_609">
            <rect width="44" height="44" fill="white" transform="translate(0.5)" />
        </clipPath>
    </defs>
</svg>
