<svg width="45" height="44" viewBox="0 0 45 44" fill="none" xmlns="http://www.w3.org/2000/svg">
    <g clip-path="url(#clip0_153_36)">
        <path
            d="M25.9552 10.6321L12.8927 2.94073C12.7368 2.84781 12.5641 2.78667 12.3844 2.76083C12.2048 2.735 12.0218 2.74497 11.8461 2.79019C11.6703 2.83541 11.5052 2.91497 11.3604 3.02429C11.2155 3.13361 11.0937 3.27052 11.0021 3.42714L8.93956 6.92308C8.84671 7.07907 8.78567 7.2519 8.75996 7.4316C8.73424 7.6113 8.74437 7.79431 8.78975 7.97008C8.83513 8.14585 8.91487 8.31089 9.02436 8.45568C9.13385 8.60047 9.27092 8.72215 9.42768 8.8137L35.5699 24.2C35.7266 24.2915 35.8637 24.4132 35.9732 24.558C36.0827 24.7028 36.1624 24.8678 36.2078 25.0436C36.2532 25.2193 36.2633 25.4024 36.2376 25.5821C36.2119 25.7618 36.1508 25.9346 36.058 26.0906L33.9955 29.5865C33.9038 29.7431 33.782 29.88 33.6372 29.9894C33.4923 30.0987 33.3272 30.1782 33.1515 30.2235C32.9757 30.2687 32.7928 30.2787 32.6131 30.2528C32.4335 30.227 32.2608 30.1658 32.1049 30.0729L19.0424 22.3815"
            stroke="white" stroke-width="2" stroke-linecap="round" stroke-linejoin="round" />
        <path
            d="M16.6314 13.0453L8.94 26.1078C8.84708 26.2636 8.78594 26.4364 8.7601 26.616C8.73426 26.7956 8.74424 26.9786 8.78946 27.1544C8.83468 27.3301 8.91424 27.4952 9.02356 27.6401C9.13288 27.7849 9.26979 27.9067 9.42641 27.9984L12.9223 30.0609C13.0783 30.1537 13.2512 30.2148 13.4309 30.2405C13.6106 30.2662 13.7936 30.2561 13.9693 30.2107C14.1451 30.1653 14.3102 30.0856 14.4549 29.9761C14.5997 29.8666 14.7214 29.7295 14.813 29.5728L30.1923 3.43745C30.2839 3.28069 30.4056 3.14361 30.5504 3.03412C30.6952 2.92463 30.8602 2.8449 31.036 2.79952C31.2117 2.75414 31.3947 2.74401 31.5744 2.76972C31.7541 2.79543 31.927 2.85647 32.083 2.94932L35.5789 5.01182C35.7355 5.10351 35.8724 5.22529 35.9818 5.37015C36.0911 5.51501 36.1706 5.68008 36.2159 5.85583C36.2611 6.03159 36.2711 6.21456 36.2452 6.39419C36.2194 6.57382 36.1582 6.74656 36.0653 6.90245L28.3739 19.9649"
            stroke="white" stroke-width="2" stroke-linecap="round" stroke-linejoin="round" />
        <path d="M6 39.875H39" stroke="white" stroke-width="2" stroke-linecap="round" stroke-linejoin="round" />
        <path d="M29.0938 28.282L30.7506 39.875" stroke="white" stroke-width="2" stroke-linecap="round"
            stroke-linejoin="round" />
        <path d="M16.0152 27.5189L14.25 39.875" stroke="white" stroke-width="2" stroke-linecap="round"
            stroke-linejoin="round" />
    </g>
    <defs>
        <clipPath id="clip0_153_36">
            <rect width="44" height="44" fill="white" transform="translate(0.5)" />
        </clipPath>
    </defs>
</svg>